<svg id="noun-cart-1570216" xmlns="http://www.w3.org/2000/svg" width="24.807" height="21.572" viewBox="0 0 24.807 21.572">
  <path id="Caminho_260" data-name="Caminho 260" d="M93.208,56a.809.809,0,0,0,0,1.618h3.227c1.339,3.316,2.658,6.638,3.986,9.96L99.2,70.519a.809.809,0,0,0,.75,1.121h13.482a.809.809,0,1,0,0-1.618H101.162l.7-1.668,12.985-1.036a.832.832,0,0,0,.725-.624l1.618-7.011a.847.847,0,0,0-.792-.986H98.609l-.876-2.191a.829.829,0,0,0-.75-.506Zm6.05,4.314h16.12l-1.255,5.443-12.294.978Zm3.388,11.864a2.7,2.7,0,1,0,2.7,2.7A2.709,2.709,0,0,0,102.646,72.179Zm8.089,0a2.7,2.7,0,1,0,2.7,2.7A2.709,2.709,0,0,0,110.735,72.179ZM102.646,73.8a1.078,1.078,0,1,1-1.078,1.078A1.066,1.066,0,0,1,102.646,73.8Zm8.089,0a1.078,1.078,0,1,1-1.078,1.078A1.067,1.067,0,0,1,110.735,73.8Z" transform="translate(-92.399 -56)" fill="#52bbb7"/>
</svg>
