<svg xmlns="http://www.w3.org/2000/svg" width="12.41" height="12.41" viewBox="0 0 12.41 12.41">
  <path id="Icon_awesome-facebook-square" data-name="Icon awesome-facebook-square" d="M11.08,2.25H1.33A1.33,1.33,0,0,0,0,3.58V13.33a1.33,1.33,0,0,0,1.33,1.33h3.8V10.441H3.386V8.455H5.132V6.941A2.424,2.424,0,0,1,7.726,4.269,10.572,10.572,0,0,1,9.264,4.4v1.69H8.4a.993.993,0,0,0-1.12,1.073V8.455H9.184l-.3,1.986h-1.6V14.66h3.8a1.33,1.33,0,0,0,1.33-1.33V3.58a1.33,1.33,0,0,0-1.33-1.33Z" transform="translate(0 -2.25)" fill="#fff"/>
</svg>
