<svg xmlns="http://www.w3.org/2000/svg" width="13.935" height="9.798" viewBox="0 0 13.935 9.798">
  <path id="Icon_awesome-youtube" data-name="Icon awesome-youtube" d="M14.694,6.033a1.751,1.751,0,0,0-1.232-1.24A41.379,41.379,0,0,0,8.017,4.5a41.379,41.379,0,0,0-5.444.293,1.751,1.751,0,0,0-1.232,1.24A18.368,18.368,0,0,0,1.05,9.409a18.368,18.368,0,0,0,.291,3.376A1.725,1.725,0,0,0,2.573,14a41.379,41.379,0,0,0,5.444.293A41.379,41.379,0,0,0,13.462,14a1.725,1.725,0,0,0,1.232-1.22,18.368,18.368,0,0,0,.291-3.376,18.368,18.368,0,0,0-.291-3.376Zm-8.1,5.448V7.337l3.642,2.072L6.592,11.481Z" transform="translate(-1.05 -4.5)" fill="#fff"/>
</svg>
