<svg id="noun-profile-1051452" xmlns="http://www.w3.org/2000/svg" width="17.696" height="21.572" viewBox="0 0 17.696 21.572">
  <path id="Caminho_261" data-name="Caminho 261" d="M265.648,98.416a5.25,5.25,0,1,0-5.25-5.25A5.265,5.265,0,0,0,265.648,98.416Zm0-9.187a3.937,3.937,0,1,1-3.937,3.937A3.949,3.949,0,0,1,265.648,89.229Z" transform="translate(-256.784 -87.916)" fill="#52bbb7"/>
  <path id="Caminho_262" data-name="Caminho 262" d="M199.969,308.652H215.16a1.241,1.241,0,0,0,.919-.394,1.334,1.334,0,0,0,.328-.984,9.043,9.043,0,0,0-8.859-8.794c-4.725,0-8.5,3.806-8.826,8.826a1.334,1.334,0,0,0,.328.984,1.41,1.41,0,0,0,.919.361Zm7.612-8.859a7.764,7.764,0,0,1,7.547,7.547H200.034A7.764,7.764,0,0,1,207.581,299.793Z" transform="translate(-198.717 -287.08)" fill="#52bbb7"/>
</svg>
